<svg id="Layer_1" data-name="Layer 1" xmlns="http://www.w3.org/2000/svg" viewBox="0 0 41.01 34.3">
							<defs>
								<style>
									.cls-1
									{
										fill: #d6e04d;
									}
								</style>
							</defs>
							<path class="cls-1" d="M40.33,10.33c-.36-.16-.76-.24-1.18-.24h-22.17l-.28.86c-.26.82-.99,1.36-1.83,1.36s-1.58-.54-1.84-1.36l-.28-.86H3.67c-1.63,0-2.97,1.25-3.1,2.84L.06,10.9c-.25-1,.36-2.01,1.36-2.26l7.93-1.98c.71,1.15,2.09,1.77,3.47,1.43,1.38-.35,2.31-1.55,2.4-2.89L35.84.06c1-.25,2.02.36,2.27,1.36l2.22,8.91Z"></path>
							<path class="cls-1" d="M31.76,23.65c-.51,0-.91.2-1.2.6-.29.4-.44.97-.44,1.7s.15,1.3.44,1.7.69.6,1.2.6.89-.2,1.18-.6.44-.97.44-1.7-.15-1.3-.44-1.7c-.29-.4-.68-.6-1.18-.6Z"></path>
							<path class="cls-1" d="M25.23,21.38c.29-.4.43-.96.43-1.7s-.14-1.3-.43-1.7c-.28-.4-.69-.6-1.21-.6s-.89.2-1.19.6c-.3.4-.45.97-.45,1.7s.15,1.3.45,1.7c.3.4.69.6,1.19.6.52,0,.92-.2,1.21-.6Z"></path>
							<path class="cls-1" d="M39.15,11.33h-21.26c-.41,1.28-1.6,2.22-3.02,2.22s-2.62-.94-3.03-2.22H3.67c-1.03,0-1.87.83-1.87,1.87v19.23c0,1.03.84,1.87,1.87,1.87h8.11c.35-1.39,1.59-2.42,3.09-2.42s2.74,1.03,3.08,2.42h21.2c1.03,0,1.86-.84,1.86-1.87V13.2c0-1.04-.83-1.87-1.86-1.87ZM10.28,30.45h-5.09c-.27,0-.5-.22-.5-.5s.23-.5.5-.5h5.09c.28,0,.5.23.5.5s-.22.5-.5.5ZM10.28,26.82h-5.09c-.27,0-.5-.22-.5-.5s.23-.5.5-.5h5.09c.28,0,.5.22.5.5s-.22.5-.5.5ZM10.28,23.19h-5.09c-.27,0-.5-.23-.5-.5s.23-.5.5-.5h5.09c.28,0,.5.22.5.5s-.22.5-.5.5ZM10.28,19.56h-5.09c-.27,0-.5-.23-.5-.5s.23-.5.5-.5h5.09c.28,0,.5.22.5.5s-.22.5-.5.5ZM10.28,15.92h-5.09c-.27,0-.5-.22-.5-.5s.23-.5.5-.5h5.09c.28,0,.5.22.5.5s-.22.5-.5.5ZM15.37,29.68c0,.28-.23.5-.5.5s-.5-.22-.5-.5v-1.86c0-.28.22-.5.5-.5s.5.22.5.5v1.86ZM15.37,25.74c0,.28-.23.5-.5.5s-.5-.22-.5-.5v-1.87c0-.27.22-.5.5-.5s.5.23.5.5v1.87ZM15.37,21.79c0,.28-.23.5-.5.5s-.5-.22-.5-.5v-1.86c0-.28.22-.5.5-.5s.5.22.5.5v1.86ZM15.37,17.85c0,.28-.23.5-.5.5s-.5-.22-.5-.5v-1.87c0-.27.22-.5.5-.5s.5.23.5.5v1.87ZM21.25,21.6c-.27-.55-.4-1.19-.4-1.92s.13-1.38.4-1.92c.26-.55.64-.97,1.12-1.27.48-.31,1.03-.46,1.65-.46s1.21.15,1.68.46c.48.3.85.72,1.12,1.26.26.54.4,1.18.4,1.93s-.14,1.37-.4,1.92c-.27.54-.64.97-1.12,1.27-.47.3-1.03.46-1.68.46s-1.17-.16-1.65-.46c-.48-.3-.86-.73-1.12-1.27ZM22.92,29.46l9.08-13.3h1.86l-9.08,13.3h-1.86ZM34.54,27.87c-.27.54-.64.97-1.11,1.27-.48.3-1.03.46-1.67.46s-1.21-.16-1.69-.46-.85-.73-1.11-1.27c-.26-.55-.39-1.19-.39-1.92s.13-1.38.39-1.92c.26-.55.63-.97,1.11-1.27.48-.31,1.05-.46,1.69-.46s1.19.15,1.67.46c.47.3.84.72,1.11,1.27.26.54.4,1.18.4,1.92s-.14,1.37-.4,1.92Z"></path>
						</svg>